%TF.GenerationSoftware,KiCad,Pcbnew,(6.0.4)*%
%TF.CreationDate,2022-07-18T11:06:22+02:00*%
%TF.ProjectId,GBDuino2,47424475-696e-46f3-922e-6b696361645f,rev?*%
%TF.SameCoordinates,Original*%
%TF.FileFunction,Soldermask,Top*%
%TF.FilePolarity,Negative*%
%FSLAX46Y46*%
G04 Gerber Fmt 4.6, Leading zero omitted, Abs format (unit mm)*
G04 Created by KiCad (PCBNEW (6.0.4)) date 2022-07-18 11:06:22*
%MOMM*%
%LPD*%
G01*
G04 APERTURE LIST*
%ADD10C,1.727200*%
%ADD11O,1.727200X1.727200*%
%ADD12O,1.727200X2.032000*%
%ADD13C,2.250000*%
%ADD14R,7.000000X3.000000*%
%ADD15C,1.750000*%
%ADD16R,1.000000X3.500000*%
%ADD17R,1.000000X5.000000*%
G04 APERTURE END LIST*
%TO.C,G\u002A\u002A\u002A*%
G36*
X129477058Y-96139066D02*
G01*
X129758990Y-96253944D01*
X130903447Y-96920422D01*
X131362169Y-97681669D01*
X131210006Y-98371998D01*
X130920936Y-98676522D01*
X130588413Y-98340069D01*
X130583379Y-98332374D01*
X130034244Y-97946718D01*
X129073917Y-97618392D01*
X128674356Y-97536520D01*
X127114685Y-97275756D01*
X127779990Y-96493768D01*
X128259214Y-96010005D01*
X128727470Y-95903579D01*
X129477058Y-96139066D01*
G37*
G36*
X126284736Y-107636448D02*
G01*
X127140054Y-107843863D01*
X127479457Y-108025504D01*
X128270679Y-108741912D01*
X128561427Y-109790246D01*
X128564637Y-109834896D01*
X128557150Y-110661188D01*
X128285634Y-110995386D01*
X127750196Y-111051662D01*
X126901384Y-110775811D01*
X126308004Y-109996188D01*
X125832023Y-108774328D01*
X125832725Y-108647640D01*
X126549753Y-108647640D01*
X126565674Y-109055491D01*
X126848024Y-109644194D01*
X127295353Y-110186760D01*
X127722499Y-110329715D01*
X127908676Y-110007681D01*
X127710730Y-109167114D01*
X127239042Y-108620889D01*
X126976035Y-108547436D01*
X126549753Y-108647640D01*
X125832725Y-108647640D01*
X125836496Y-107967176D01*
X126284736Y-107636448D01*
G37*
G36*
X110727372Y-97393952D02*
G01*
X111382158Y-96875453D01*
X111933236Y-96849790D01*
X112442495Y-97361035D01*
X112424209Y-98205309D01*
X111886704Y-99241541D01*
X111784119Y-99376656D01*
X111006867Y-100136517D01*
X110411440Y-100274165D01*
X110072047Y-99793432D01*
X110021352Y-99285660D01*
X110050944Y-99135530D01*
X110379099Y-99135530D01*
X110542780Y-99577804D01*
X110920704Y-99490224D01*
X111343195Y-98946707D01*
X111471202Y-98659793D01*
X111663335Y-97905241D01*
X111611971Y-97497679D01*
X111280752Y-97567005D01*
X110843591Y-98044760D01*
X110485186Y-98685574D01*
X110379099Y-99135530D01*
X110050944Y-99135530D01*
X110223161Y-98261833D01*
X110727372Y-97393952D01*
G37*
G36*
X119757716Y-92023041D02*
G01*
X120236590Y-92516235D01*
X120555230Y-92927911D01*
X121243308Y-93989582D01*
X121410460Y-94807625D01*
X121083980Y-95598182D01*
X120921242Y-95826375D01*
X120531056Y-96293305D01*
X120405880Y-96188653D01*
X120396000Y-95868617D01*
X120149275Y-95240189D01*
X119527745Y-94422473D01*
X119201196Y-94089581D01*
X118006392Y-92962736D01*
X118823806Y-92346160D01*
X119363779Y-91992218D01*
X119757716Y-92023041D01*
G37*
G36*
X112809137Y-90619992D02*
G01*
X113134016Y-91066190D01*
X113176152Y-91286169D01*
X113098773Y-91930199D01*
X112639896Y-92095983D01*
X111768063Y-92192797D01*
X111143297Y-92327232D01*
X110546309Y-92416162D01*
X110454892Y-92093542D01*
X110561683Y-91696291D01*
X110809235Y-90967449D01*
X111117202Y-90667509D01*
X111774005Y-90572891D01*
X112034538Y-90554545D01*
X112809137Y-90619992D01*
G37*
G36*
X117147239Y-109977214D02*
G01*
X117758393Y-109246626D01*
X118328691Y-108786499D01*
X118639877Y-108746463D01*
X118949853Y-109312365D01*
X118796771Y-110194314D01*
X118223556Y-111182290D01*
X117484963Y-111893373D01*
X116867728Y-112094624D01*
X116505252Y-111766778D01*
X116460789Y-111436856D01*
X116556074Y-111120037D01*
X117176282Y-111120037D01*
X117367097Y-111409430D01*
X117756111Y-111251155D01*
X118032373Y-110843529D01*
X118238123Y-110071062D01*
X118132896Y-109777927D01*
X117761441Y-110059788D01*
X117701524Y-110136235D01*
X117293606Y-110783150D01*
X117176282Y-111120037D01*
X116556074Y-111120037D01*
X116659836Y-110775034D01*
X117147239Y-109977214D01*
G37*
%TD*%
D10*
%TO.C,P1*%
X197358000Y-114046000D03*
D11*
X199898000Y-114046000D03*
X197358000Y-111506000D03*
X199898000Y-111506000D03*
X197358000Y-108966000D03*
X199898000Y-108966000D03*
X197358000Y-106426000D03*
X199898000Y-106426000D03*
X197358000Y-103886000D03*
X199898000Y-103886000D03*
X197358000Y-101346000D03*
X199898000Y-101346000D03*
X197358000Y-98806000D03*
X199898000Y-98806000D03*
X197358000Y-96266000D03*
X199898000Y-96266000D03*
X197358000Y-93726000D03*
X199898000Y-93726000D03*
X197358000Y-91186000D03*
X199898000Y-91186000D03*
X197358000Y-88646000D03*
X199898000Y-88646000D03*
X197358000Y-86106000D03*
X199898000Y-86106000D03*
X197358000Y-83566000D03*
X199898000Y-83566000D03*
X197358000Y-81026000D03*
X199898000Y-81026000D03*
X197358000Y-78486000D03*
X199898000Y-78486000D03*
X197358000Y-75946000D03*
X199898000Y-75946000D03*
X197358000Y-73406000D03*
X199898000Y-73406000D03*
X197358000Y-70866000D03*
X199898000Y-70866000D03*
%TD*%
D12*
%TO.C,P2*%
X131318000Y-119126000D03*
X133858000Y-119126000D03*
X136398000Y-119126000D03*
X138938000Y-119126000D03*
X141478000Y-119126000D03*
X144018000Y-119126000D03*
X146558000Y-119126000D03*
X149098000Y-119126000D03*
%TD*%
%TO.C,P3*%
X154178000Y-119126000D03*
X156718000Y-119126000D03*
X159258000Y-119126000D03*
X161798000Y-119126000D03*
X164338000Y-119126000D03*
X166878000Y-119126000D03*
X169418000Y-119126000D03*
X171958000Y-119126000D03*
%TD*%
%TO.C,P4*%
X177038000Y-119126000D03*
X179578000Y-119126000D03*
X182118000Y-119126000D03*
X184658000Y-119126000D03*
X187198000Y-119126000D03*
X189738000Y-119126000D03*
X192278000Y-119126000D03*
X194818000Y-119126000D03*
%TD*%
%TO.C,P5*%
X122174000Y-70866000D03*
X124714000Y-70866000D03*
X127254000Y-70866000D03*
X129794000Y-70866000D03*
X132334000Y-70866000D03*
X134874000Y-70866000D03*
X137414000Y-70866000D03*
X139954000Y-70866000D03*
X142494000Y-70866000D03*
X145034000Y-70866000D03*
%TD*%
%TO.C,P6*%
X149098000Y-70866000D03*
X151638000Y-70866000D03*
X154178000Y-70866000D03*
X156718000Y-70866000D03*
X159258000Y-70866000D03*
X161798000Y-70866000D03*
X164338000Y-70866000D03*
X166878000Y-70866000D03*
%TD*%
%TO.C,P7*%
X171958000Y-70866000D03*
X174498000Y-70866000D03*
X177038000Y-70866000D03*
X179578000Y-70866000D03*
X182118000Y-70866000D03*
X184658000Y-70866000D03*
X187198000Y-70866000D03*
X189738000Y-70866000D03*
%TD*%
D13*
%TO.C,J2*%
X175310000Y-87714200D03*
X149810000Y-87714200D03*
D14*
X149810000Y-76904200D03*
X175310000Y-76904200D03*
D15*
X182060000Y-90714200D03*
X142060000Y-90714200D03*
D16*
X139310000Y-95214200D03*
X140810000Y-95214200D03*
X142310000Y-95214200D03*
X143810000Y-95214200D03*
X145310000Y-95214200D03*
X146810000Y-95214200D03*
X148310000Y-95214200D03*
X149810000Y-95214200D03*
X151310000Y-95214200D03*
X152810000Y-95214200D03*
X154310000Y-95214200D03*
X155810000Y-95214200D03*
X157310000Y-95214200D03*
X158810000Y-95214200D03*
X160310000Y-95214200D03*
X161810000Y-95214200D03*
X163310000Y-95214200D03*
X164810000Y-95214200D03*
X166310000Y-95214200D03*
X167810000Y-95214200D03*
X169310000Y-95214200D03*
X170810000Y-95214200D03*
X172310000Y-95214200D03*
X173810000Y-95214200D03*
X175310000Y-95214200D03*
X176810000Y-95214200D03*
X178310000Y-95214200D03*
X179810000Y-95214200D03*
X181310000Y-95214200D03*
X182810000Y-95214200D03*
X184310000Y-95214200D03*
D17*
X185810000Y-94464200D03*
%TD*%
M02*
