%TF.GenerationSoftware,KiCad,Pcbnew,(6.0.4)*%
%TF.CreationDate,2022-07-18T11:06:22+02:00*%
%TF.ProjectId,GBDuino2,47424475-696e-46f3-922e-6b696361645f,rev?*%
%TF.SameCoordinates,Original*%
%TF.FileFunction,Copper,L2,Bot*%
%TF.FilePolarity,Positive*%
%FSLAX46Y46*%
G04 Gerber Fmt 4.6, Leading zero omitted, Abs format (unit mm)*
G04 Created by KiCad (PCBNEW (6.0.4)) date 2022-07-18 11:06:22*
%MOMM*%
%LPD*%
G01*
G04 APERTURE LIST*
%TA.AperFunction,ComponentPad*%
%ADD10C,1.727200*%
%TD*%
%TA.AperFunction,ComponentPad*%
%ADD11O,1.727200X1.727200*%
%TD*%
%TA.AperFunction,ComponentPad*%
%ADD12O,1.727200X2.032000*%
%TD*%
%TA.AperFunction,ViaPad*%
%ADD13C,0.600000*%
%TD*%
%TA.AperFunction,Conductor*%
%ADD14C,0.250000*%
%TD*%
G04 APERTURE END LIST*
D10*
%TO.P,P1,1*%
%TO.N,GND*%
X197358000Y-114046000D03*
D11*
%TO.P,P1,2*%
X199898000Y-114046000D03*
%TO.P,P1,3*%
%TO.N,/52(SCK)*%
X197358000Y-111506000D03*
%TO.P,P1,4*%
%TO.N,/53(SS)*%
X199898000Y-111506000D03*
%TO.P,P1,5*%
%TO.N,/50(MISO)*%
X197358000Y-108966000D03*
%TO.P,P1,6*%
%TO.N,/51(MOSI)*%
X199898000Y-108966000D03*
%TO.P,P1,7*%
%TO.N,/48*%
X197358000Y-106426000D03*
%TO.P,P1,8*%
%TO.N,/49*%
X199898000Y-106426000D03*
%TO.P,P1,9*%
%TO.N,/46*%
X197358000Y-103886000D03*
%TO.P,P1,10*%
%TO.N,/47*%
X199898000Y-103886000D03*
%TO.P,P1,11*%
%TO.N,/44*%
X197358000Y-101346000D03*
%TO.P,P1,12*%
%TO.N,/45*%
X199898000Y-101346000D03*
%TO.P,P1,13*%
%TO.N,/42*%
X197358000Y-98806000D03*
%TO.P,P1,14*%
%TO.N,/43*%
X199898000Y-98806000D03*
%TO.P,P1,15*%
%TO.N,/40*%
X197358000Y-96266000D03*
%TO.P,P1,16*%
%TO.N,/41*%
X199898000Y-96266000D03*
%TO.P,P1,17*%
%TO.N,/38*%
X197358000Y-93726000D03*
%TO.P,P1,18*%
%TO.N,/39*%
X199898000Y-93726000D03*
%TO.P,P1,19*%
%TO.N,D1*%
X197358000Y-91186000D03*
%TO.P,P1,20*%
%TO.N,D0*%
X199898000Y-91186000D03*
%TO.P,P1,21*%
%TO.N,D3*%
X197358000Y-88646000D03*
%TO.P,P1,22*%
%TO.N,D2*%
X199898000Y-88646000D03*
%TO.P,P1,23*%
%TO.N,D5*%
X197358000Y-86106000D03*
%TO.P,P1,24*%
%TO.N,D4*%
X199898000Y-86106000D03*
%TO.P,P1,25*%
%TO.N,D7*%
X197358000Y-83566000D03*
%TO.P,P1,26*%
%TO.N,D6*%
X199898000Y-83566000D03*
%TO.P,P1,27*%
%TO.N,/28*%
X197358000Y-81026000D03*
%TO.P,P1,28*%
%TO.N,/29*%
X199898000Y-81026000D03*
%TO.P,P1,29*%
%TO.N,/26*%
X197358000Y-78486000D03*
%TO.P,P1,30*%
%TO.N,/27*%
X199898000Y-78486000D03*
%TO.P,P1,31*%
%TO.N,/24*%
X197358000Y-75946000D03*
%TO.P,P1,32*%
%TO.N,/25*%
X199898000Y-75946000D03*
%TO.P,P1,33*%
%TO.N,/22*%
X197358000Y-73406000D03*
%TO.P,P1,34*%
%TO.N,/23*%
X199898000Y-73406000D03*
%TO.P,P1,35*%
%TO.N,+5V*%
X197358000Y-70866000D03*
%TO.P,P1,36*%
X199898000Y-70866000D03*
%TD*%
D12*
%TO.P,P2,1*%
%TO.N,Net-(P2-Pad1)*%
X131318000Y-119126000D03*
%TO.P,P2,2*%
%TO.N,/IOREF*%
X133858000Y-119126000D03*
%TO.P,P2,3*%
%TO.N,/Reset*%
X136398000Y-119126000D03*
%TO.P,P2,4*%
%TO.N,+3V3*%
X138938000Y-119126000D03*
%TO.P,P2,5*%
%TO.N,+5V*%
X141478000Y-119126000D03*
%TO.P,P2,6*%
%TO.N,GND*%
X144018000Y-119126000D03*
%TO.P,P2,7*%
X146558000Y-119126000D03*
%TO.P,P2,8*%
%TO.N,/Vin*%
X149098000Y-119126000D03*
%TD*%
%TO.P,P3,1*%
%TO.N,/A0*%
X154178000Y-119126000D03*
%TO.P,P3,2*%
%TO.N,/A1*%
X156718000Y-119126000D03*
%TO.P,P3,3*%
%TO.N,/A2*%
X159258000Y-119126000D03*
%TO.P,P3,4*%
%TO.N,/A3*%
X161798000Y-119126000D03*
%TO.P,P3,5*%
%TO.N,/A4*%
X164338000Y-119126000D03*
%TO.P,P3,6*%
%TO.N,/A5*%
X166878000Y-119126000D03*
%TO.P,P3,7*%
%TO.N,/A6*%
X169418000Y-119126000D03*
%TO.P,P3,8*%
%TO.N,/A7*%
X171958000Y-119126000D03*
%TD*%
%TO.P,P4,1*%
%TO.N,/A8*%
X177038000Y-119126000D03*
%TO.P,P4,2*%
%TO.N,/A9*%
X179578000Y-119126000D03*
%TO.P,P4,3*%
%TO.N,/A10*%
X182118000Y-119126000D03*
%TO.P,P4,4*%
%TO.N,/A11*%
X184658000Y-119126000D03*
%TO.P,P4,5*%
%TO.N,/A12*%
X187198000Y-119126000D03*
%TO.P,P4,6*%
%TO.N,/A13*%
X189738000Y-119126000D03*
%TO.P,P4,7*%
%TO.N,/A14*%
X192278000Y-119126000D03*
%TO.P,P4,8*%
%TO.N,/A15*%
X194818000Y-119126000D03*
%TD*%
%TO.P,P5,1*%
%TO.N,/SCL*%
X122174000Y-70866000D03*
%TO.P,P5,2*%
%TO.N,/SDA*%
X124714000Y-70866000D03*
%TO.P,P5,3*%
%TO.N,/AREF*%
X127254000Y-70866000D03*
%TO.P,P5,4*%
%TO.N,GND*%
X129794000Y-70866000D03*
%TO.P,P5,5*%
%TO.N,/13(\u002A\u002A)*%
X132334000Y-70866000D03*
%TO.P,P5,6*%
%TO.N,/12(\u002A\u002A)*%
X134874000Y-70866000D03*
%TO.P,P5,7*%
%TO.N,/11(\u002A\u002A)*%
X137414000Y-70866000D03*
%TO.P,P5,8*%
%TO.N,N/C*%
X139954000Y-70866000D03*
%TO.P,P5,9*%
%TO.N,GB_CS*%
X142494000Y-70866000D03*
%TO.P,P5,10*%
%TO.N,GB_Wr*%
X145034000Y-70866000D03*
%TD*%
%TO.P,P6,1*%
%TO.N,Gb_Audio*%
X149098000Y-70866000D03*
%TO.P,P6,2*%
%TO.N,GB_RD*%
X151638000Y-70866000D03*
%TO.P,P6,3*%
%TO.N,/5(\u002A\u002A)*%
X154178000Y-70866000D03*
%TO.P,P6,4*%
%TO.N,/4(\u002A\u002A)*%
X156718000Y-70866000D03*
%TO.P,P6,5*%
%TO.N,/3(\u002A\u002A)*%
X159258000Y-70866000D03*
%TO.P,P6,6*%
%TO.N,/2(\u002A\u002A)*%
X161798000Y-70866000D03*
%TO.P,P6,7*%
%TO.N,/1(Tx0)*%
X164338000Y-70866000D03*
%TO.P,P6,8*%
%TO.N,/0(Rx0)*%
X166878000Y-70866000D03*
%TD*%
%TO.P,P7,1*%
%TO.N,/14(Tx3)*%
X171958000Y-70866000D03*
%TO.P,P7,2*%
%TO.N,/15(Rx3)*%
X174498000Y-70866000D03*
%TO.P,P7,3*%
%TO.N,/16(Tx2)*%
X177038000Y-70866000D03*
%TO.P,P7,4*%
%TO.N,GB_Rst*%
X179578000Y-70866000D03*
%TO.P,P7,5*%
%TO.N,/18(Tx1)*%
X182118000Y-70866000D03*
%TO.P,P7,6*%
%TO.N,/19(Rx1)*%
X184658000Y-70866000D03*
%TO.P,P7,7*%
%TO.N,/20(SDA)*%
X187198000Y-70866000D03*
%TO.P,P7,8*%
%TO.N,/21(SCL)*%
X189738000Y-70866000D03*
%TD*%
D13*
%TO.N,GND*%
X186944000Y-93218000D03*
%TO.N,+5V*%
X139319000Y-92583000D03*
%TO.N,/A0*%
X146812000Y-92456000D03*
%TO.N,/A1*%
X148336000Y-92456000D03*
%TO.N,/A2*%
X149860000Y-92583000D03*
%TO.N,/A3*%
X151384000Y-92583000D03*
%TO.N,/A4*%
X152781000Y-92710000D03*
%TO.N,/A5*%
X154305000Y-92710000D03*
%TO.N,/A6*%
X155829000Y-92710000D03*
%TO.N,/A7*%
X157353000Y-92710000D03*
%TO.N,/A8*%
X158750000Y-92710000D03*
%TO.N,/A9*%
X160274000Y-92837000D03*
%TO.N,/A10*%
X161798000Y-92837000D03*
%TO.N,/A11*%
X163322000Y-92837000D03*
%TO.N,/A12*%
X164846000Y-92837000D03*
%TO.N,/A13*%
X166370000Y-92837000D03*
%TO.N,/A14*%
X167894000Y-92837000D03*
%TO.N,/A15*%
X169291000Y-92837000D03*
%TO.N,D0*%
X170815000Y-92710000D03*
%TO.N,D1*%
X172339000Y-91567000D03*
%TO.N,D2*%
X173736000Y-91059000D03*
%TO.N,D3*%
X176657000Y-88783500D03*
%TO.N,D4*%
X177546000Y-88275500D03*
%TO.N,D5*%
X178562000Y-87767500D03*
%TO.N,D6*%
X179451000Y-87249000D03*
%TO.N,D7*%
X180467000Y-86360000D03*
%TO.N,GB_Rst*%
X181737000Y-85090000D03*
%TO.N,Gb_Audio*%
X146304000Y-82169000D03*
%TO.N,GB_Wr*%
X142367000Y-92710000D03*
%TO.N,GB_RD*%
X144840589Y-91125411D03*
%TO.N,GB_CS*%
X145161000Y-92329000D03*
%TD*%
D14*
%TO.N,GND*%
X188468000Y-109220000D02*
X193294000Y-114046000D01*
X186944000Y-93218000D02*
X188468000Y-94742000D01*
X188468000Y-94742000D02*
X188468000Y-109220000D01*
X197358000Y-114046000D02*
X199898000Y-114046000D01*
X193294000Y-114046000D02*
X197358000Y-114046000D01*
%TO.N,+5V*%
X139319000Y-92583000D02*
X139319000Y-115570000D01*
X141478000Y-117729000D02*
X141478000Y-119126000D01*
X139319000Y-115570000D02*
X141478000Y-117729000D01*
%TO.N,/A0*%
X154178000Y-119126000D02*
X154178000Y-118745000D01*
X154178000Y-118745000D02*
X157353000Y-115570000D01*
X157353000Y-112906590D02*
X146812000Y-102365590D01*
X146812000Y-102365590D02*
X146812000Y-92456000D01*
X157353000Y-115570000D02*
X157353000Y-112906590D01*
%TO.N,/A1*%
X148336000Y-103253872D02*
X159766000Y-114683872D01*
X148336000Y-92456000D02*
X148336000Y-103253872D01*
X159766000Y-116078000D02*
X156718000Y-119126000D01*
X159766000Y-114683872D02*
X159766000Y-116078000D01*
%TO.N,/A2*%
X160528000Y-117856000D02*
X159258000Y-119126000D01*
X160528000Y-114810154D02*
X160528000Y-117856000D01*
X149860000Y-104142154D02*
X160528000Y-114810154D01*
X149860000Y-92583000D02*
X149860000Y-104142154D01*
%TO.N,/A3*%
X151384000Y-105030436D02*
X161798000Y-115444436D01*
X161798000Y-115444436D02*
X161798000Y-119126000D01*
X151384000Y-92583000D02*
X151384000Y-105030436D01*
%TO.N,/A4*%
X152781000Y-105791718D02*
X164338000Y-117348718D01*
X164338000Y-117348718D02*
X164338000Y-119126000D01*
X152781000Y-92710000D02*
X152781000Y-105791718D01*
%TO.N,/A5*%
X165227000Y-116078000D02*
X166878000Y-117729000D01*
X154305000Y-92710000D02*
X154305000Y-106680000D01*
X154305000Y-106680000D02*
X163703000Y-116078000D01*
X166878000Y-117729000D02*
X166878000Y-119126000D01*
X163703000Y-116078000D02*
X165227000Y-116078000D01*
%TO.N,/A6*%
X165862000Y-115570000D02*
X169418000Y-119126000D01*
X155829000Y-107315000D02*
X164084000Y-115570000D01*
X155829000Y-92710000D02*
X155829000Y-107315000D01*
X164084000Y-115570000D02*
X165862000Y-115570000D01*
%TO.N,/A7*%
X167952480Y-115120480D02*
X171958000Y-119126000D01*
X164523480Y-115120480D02*
X167952480Y-115120480D01*
X157353000Y-107950000D02*
X164523480Y-115120480D01*
X157353000Y-92710000D02*
X157353000Y-107950000D01*
%TO.N,/A8*%
X158750000Y-92710000D02*
X158750000Y-101473000D01*
X176403000Y-119126000D02*
X177038000Y-119126000D01*
X158750000Y-101473000D02*
X176403000Y-119126000D01*
%TO.N,/A9*%
X179578000Y-117348000D02*
X179578000Y-119126000D01*
X172974000Y-114554000D02*
X176784000Y-114554000D01*
X160274000Y-92837000D02*
X160274000Y-101854000D01*
X176784000Y-114554000D02*
X179578000Y-117348000D01*
X160274000Y-101854000D02*
X172974000Y-114554000D01*
%TO.N,/A10*%
X161798000Y-102362000D02*
X173355000Y-113919000D01*
X161798000Y-92837000D02*
X161798000Y-102362000D01*
X178308000Y-113919000D02*
X182118000Y-117729000D01*
X182118000Y-117729000D02*
X182118000Y-119126000D01*
X173355000Y-113919000D02*
X178308000Y-113919000D01*
%TO.N,/A11*%
X180594000Y-113284000D02*
X184658000Y-117348000D01*
X163322000Y-92837000D02*
X163322000Y-103124000D01*
X173482000Y-113284000D02*
X180594000Y-113284000D01*
X184658000Y-117348000D02*
X184658000Y-119126000D01*
X163322000Y-103124000D02*
X173482000Y-113284000D01*
%TO.N,/A12*%
X182499000Y-112776000D02*
X187198000Y-117475000D01*
X187198000Y-117475000D02*
X187198000Y-119126000D01*
X173863000Y-112776000D02*
X182499000Y-112776000D01*
X164846000Y-92837000D02*
X164846000Y-103759000D01*
X164846000Y-103759000D02*
X173863000Y-112776000D01*
%TO.N,/A13*%
X166370000Y-92837000D02*
X166370000Y-104521000D01*
X184150000Y-112268000D02*
X189738000Y-117856000D01*
X174117000Y-112268000D02*
X184150000Y-112268000D01*
X166370000Y-104521000D02*
X174117000Y-112268000D01*
X189738000Y-117856000D02*
X189738000Y-119126000D01*
%TO.N,/A14*%
X185928000Y-111506000D02*
X192278000Y-117856000D01*
X167894000Y-92837000D02*
X167894000Y-105283000D01*
X167894000Y-105283000D02*
X174117000Y-111506000D01*
X192278000Y-117856000D02*
X192278000Y-119126000D01*
X174117000Y-111506000D02*
X185928000Y-111506000D01*
%TO.N,/A15*%
X169291000Y-105664000D02*
X174498000Y-110871000D01*
X174498000Y-110871000D02*
X187579000Y-110871000D01*
X187579000Y-110871000D02*
X194818000Y-118110000D01*
X169291000Y-92837000D02*
X169291000Y-105664000D01*
X194818000Y-118110000D02*
X194818000Y-119126000D01*
%TO.N,D0*%
X198628000Y-92456000D02*
X198501000Y-92456000D01*
X171069000Y-92456000D02*
X170815000Y-92710000D01*
X198501000Y-92456000D02*
X171069000Y-92456000D01*
X199898000Y-91186000D02*
X198628000Y-92456000D01*
%TO.N,D1*%
X195580000Y-91948000D02*
X172720000Y-91948000D01*
X197358000Y-91186000D02*
X196342000Y-91186000D01*
X172720000Y-91948000D02*
X172339000Y-91567000D01*
X196342000Y-91186000D02*
X195580000Y-91948000D01*
%TO.N,D2*%
X198628000Y-89916000D02*
X183388000Y-89916000D01*
X199898000Y-88646000D02*
X198628000Y-89916000D01*
X183388000Y-89916000D02*
X182880000Y-89408000D01*
X175387000Y-89408000D02*
X173736000Y-91059000D01*
X182880000Y-89408000D02*
X175387000Y-89408000D01*
%TO.N,D3*%
X196215000Y-88646000D02*
X195453000Y-89408000D01*
X176773500Y-88900000D02*
X176657000Y-88783500D01*
X183642000Y-89408000D02*
X183134000Y-88900000D01*
X197358000Y-88646000D02*
X196215000Y-88646000D01*
X183134000Y-88900000D02*
X176773500Y-88900000D01*
X195453000Y-89408000D02*
X183642000Y-89408000D01*
%TO.N,D4*%
X196088000Y-87376000D02*
X194564000Y-88900000D01*
X198628000Y-87376000D02*
X198120000Y-87376000D01*
X177662500Y-88392000D02*
X177546000Y-88275500D01*
X198120000Y-87376000D02*
X196088000Y-87376000D01*
X183896000Y-88900000D02*
X183388000Y-88392000D01*
X183388000Y-88392000D02*
X177662500Y-88392000D01*
X199898000Y-86106000D02*
X198628000Y-87376000D01*
X194564000Y-88900000D02*
X183896000Y-88900000D01*
%TO.N,D5*%
X178678500Y-87884000D02*
X178562000Y-87767500D01*
X183642000Y-87884000D02*
X178678500Y-87884000D01*
X197358000Y-86106000D02*
X196342000Y-86106000D01*
X194183000Y-88265000D02*
X184023000Y-88265000D01*
X196342000Y-86106000D02*
X194183000Y-88265000D01*
X184023000Y-88265000D02*
X183642000Y-87884000D01*
%TO.N,D6*%
X184023000Y-87376000D02*
X183896000Y-87249000D01*
X183896000Y-87249000D02*
X179451000Y-87249000D01*
X197104000Y-84917889D02*
X196514111Y-84917889D01*
X198546111Y-84917889D02*
X197104000Y-84917889D01*
X199898000Y-83566000D02*
X198546111Y-84917889D01*
X196514111Y-84917889D02*
X193802000Y-87630000D01*
X193802000Y-87630000D02*
X184277000Y-87630000D01*
X184277000Y-87630000D02*
X184023000Y-87376000D01*
%TO.N,D7*%
X193421000Y-86868000D02*
X184658000Y-86868000D01*
X184658000Y-86868000D02*
X184150000Y-86360000D01*
X184150000Y-86360000D02*
X180467000Y-86360000D01*
X197358000Y-83566000D02*
X196723000Y-83566000D01*
X196723000Y-83566000D02*
X193421000Y-86868000D01*
%TO.N,GB_Rst*%
X181737000Y-85090000D02*
X181737000Y-76327000D01*
X181737000Y-76327000D02*
X179578000Y-74168000D01*
X179578000Y-74168000D02*
X179578000Y-70866000D01*
%TO.N,Gb_Audio*%
X146118520Y-74861480D02*
X149098000Y-71882000D01*
X149098000Y-71882000D02*
X149098000Y-70866000D01*
X146118520Y-81983520D02*
X146118520Y-74861480D01*
X146304000Y-82169000D02*
X146118520Y-81983520D01*
%TO.N,GB_Wr*%
X145034000Y-80010000D02*
X145034000Y-70866000D01*
X142367000Y-92710000D02*
X143256000Y-91821000D01*
X143256000Y-81788000D02*
X145034000Y-80010000D01*
X143256000Y-91821000D02*
X143256000Y-81788000D01*
%TO.N,GB_RD*%
X148590000Y-73533000D02*
X146568040Y-75554960D01*
X151003000Y-73533000D02*
X148590000Y-73533000D01*
X146568040Y-75554960D02*
X146568040Y-81549847D01*
X151638000Y-70866000D02*
X151638000Y-72898000D01*
X144907000Y-91059000D02*
X144840589Y-91125411D01*
X147129500Y-83375500D02*
X145796000Y-84709000D01*
X145796000Y-84709000D02*
X144907000Y-84709000D01*
X146568040Y-81549847D02*
X147129500Y-82111308D01*
X144907000Y-84709000D02*
X144907000Y-91059000D01*
X151638000Y-72898000D02*
X151003000Y-73533000D01*
X147129500Y-82111308D02*
X147129500Y-83375500D01*
%TO.N,GB_CS*%
X146177000Y-68707000D02*
X146431000Y-68961000D01*
X145669000Y-74168000D02*
X145669000Y-80137000D01*
X142494000Y-69723000D02*
X143510000Y-68707000D01*
X146812000Y-69342000D02*
X146812000Y-70866000D01*
X144018000Y-91186000D02*
X145161000Y-92329000D01*
X145669000Y-80137000D02*
X144018000Y-81788000D01*
X146431000Y-68961000D02*
X146812000Y-69342000D01*
X144018000Y-81788000D02*
X144018000Y-91186000D01*
X143510000Y-68707000D02*
X146177000Y-68707000D01*
X142494000Y-70866000D02*
X142494000Y-69723000D01*
X146812000Y-73025000D02*
X145669000Y-74168000D01*
X146812000Y-70866000D02*
X146812000Y-73025000D01*
%TD*%
M02*
