%TF.GenerationSoftware,KiCad,Pcbnew,(6.0.4)*%
%TF.CreationDate,2022-07-18T11:06:22+02:00*%
%TF.ProjectId,GBDuino2,47424475-696e-46f3-922e-6b696361645f,rev?*%
%TF.SameCoordinates,Original*%
%TF.FileFunction,Legend,Top*%
%TF.FilePolarity,Positive*%
%FSLAX46Y46*%
G04 Gerber Fmt 4.6, Leading zero omitted, Abs format (unit mm)*
G04 Created by KiCad (PCBNEW (6.0.4)) date 2022-07-18 11:06:22*
%MOMM*%
%LPD*%
G01*
G04 APERTURE LIST*
%ADD10C,0.150000*%
%ADD11C,0.203200*%
%ADD12C,1.727200*%
%ADD13O,1.727200X1.727200*%
%ADD14O,1.727200X2.032000*%
%ADD15C,2.250000*%
%ADD16C,1.750000*%
G04 APERTURE END LIST*
D10*
X132786380Y-116808285D02*
X132786380Y-117379714D01*
X132786380Y-117094000D02*
X131786380Y-117094000D01*
X131929238Y-117189238D01*
X132024476Y-117284476D01*
X132072095Y-117379714D01*
%TO.C,P1*%
X195016380Y-93194095D02*
X194016380Y-93194095D01*
X194016380Y-92813142D01*
X194064000Y-92717904D01*
X194111619Y-92670285D01*
X194206857Y-92622666D01*
X194349714Y-92622666D01*
X194444952Y-92670285D01*
X194492571Y-92717904D01*
X194540190Y-92813142D01*
X194540190Y-93194095D01*
X195016380Y-91670285D02*
X195016380Y-92241714D01*
X195016380Y-91956000D02*
X194016380Y-91956000D01*
X194159238Y-92051238D01*
X194254476Y-92146476D01*
X194302095Y-92241714D01*
%TO.C,P2*%
X139469904Y-116784380D02*
X139469904Y-115784380D01*
X139850857Y-115784380D01*
X139946095Y-115832000D01*
X139993714Y-115879619D01*
X140041333Y-115974857D01*
X140041333Y-116117714D01*
X139993714Y-116212952D01*
X139946095Y-116260571D01*
X139850857Y-116308190D01*
X139469904Y-116308190D01*
X140422285Y-115879619D02*
X140469904Y-115832000D01*
X140565142Y-115784380D01*
X140803238Y-115784380D01*
X140898476Y-115832000D01*
X140946095Y-115879619D01*
X140993714Y-115974857D01*
X140993714Y-116070095D01*
X140946095Y-116212952D01*
X140374666Y-116784380D01*
X140993714Y-116784380D01*
%TO.C,P3*%
X162329904Y-117038380D02*
X162329904Y-116038380D01*
X162710857Y-116038380D01*
X162806095Y-116086000D01*
X162853714Y-116133619D01*
X162901333Y-116228857D01*
X162901333Y-116371714D01*
X162853714Y-116466952D01*
X162806095Y-116514571D01*
X162710857Y-116562190D01*
X162329904Y-116562190D01*
X163234666Y-116038380D02*
X163853714Y-116038380D01*
X163520380Y-116419333D01*
X163663238Y-116419333D01*
X163758476Y-116466952D01*
X163806095Y-116514571D01*
X163853714Y-116609809D01*
X163853714Y-116847904D01*
X163806095Y-116943142D01*
X163758476Y-116990761D01*
X163663238Y-117038380D01*
X163377523Y-117038380D01*
X163282285Y-116990761D01*
X163234666Y-116943142D01*
%TO.C,P4*%
X185189904Y-116784380D02*
X185189904Y-115784380D01*
X185570857Y-115784380D01*
X185666095Y-115832000D01*
X185713714Y-115879619D01*
X185761333Y-115974857D01*
X185761333Y-116117714D01*
X185713714Y-116212952D01*
X185666095Y-116260571D01*
X185570857Y-116308190D01*
X185189904Y-116308190D01*
X186618476Y-116117714D02*
X186618476Y-116784380D01*
X186380380Y-115736761D02*
X186142285Y-116451047D01*
X186761333Y-116451047D01*
%TO.C,P5*%
X132865904Y-74112380D02*
X132865904Y-73112380D01*
X133246857Y-73112380D01*
X133342095Y-73160000D01*
X133389714Y-73207619D01*
X133437333Y-73302857D01*
X133437333Y-73445714D01*
X133389714Y-73540952D01*
X133342095Y-73588571D01*
X133246857Y-73636190D01*
X132865904Y-73636190D01*
X134342095Y-73112380D02*
X133865904Y-73112380D01*
X133818285Y-73588571D01*
X133865904Y-73540952D01*
X133961142Y-73493333D01*
X134199238Y-73493333D01*
X134294476Y-73540952D01*
X134342095Y-73588571D01*
X134389714Y-73683809D01*
X134389714Y-73921904D01*
X134342095Y-74017142D01*
X134294476Y-74064761D01*
X134199238Y-74112380D01*
X133961142Y-74112380D01*
X133865904Y-74064761D01*
X133818285Y-74017142D01*
%TO.C,P6*%
X157249904Y-74112380D02*
X157249904Y-73112380D01*
X157630857Y-73112380D01*
X157726095Y-73160000D01*
X157773714Y-73207619D01*
X157821333Y-73302857D01*
X157821333Y-73445714D01*
X157773714Y-73540952D01*
X157726095Y-73588571D01*
X157630857Y-73636190D01*
X157249904Y-73636190D01*
X158678476Y-73112380D02*
X158488000Y-73112380D01*
X158392761Y-73160000D01*
X158345142Y-73207619D01*
X158249904Y-73350476D01*
X158202285Y-73540952D01*
X158202285Y-73921904D01*
X158249904Y-74017142D01*
X158297523Y-74064761D01*
X158392761Y-74112380D01*
X158583238Y-74112380D01*
X158678476Y-74064761D01*
X158726095Y-74017142D01*
X158773714Y-73921904D01*
X158773714Y-73683809D01*
X158726095Y-73588571D01*
X158678476Y-73540952D01*
X158583238Y-73493333D01*
X158392761Y-73493333D01*
X158297523Y-73540952D01*
X158249904Y-73588571D01*
X158202285Y-73683809D01*
%TO.C,P7*%
X180109904Y-74112380D02*
X180109904Y-73112380D01*
X180490857Y-73112380D01*
X180586095Y-73160000D01*
X180633714Y-73207619D01*
X180681333Y-73302857D01*
X180681333Y-73445714D01*
X180633714Y-73540952D01*
X180586095Y-73588571D01*
X180490857Y-73636190D01*
X180109904Y-73636190D01*
X181014666Y-73112380D02*
X181681333Y-73112380D01*
X181252761Y-74112380D01*
%TO.C,P1*%
X198628000Y-115316000D02*
X198628000Y-112776000D01*
X196088000Y-69596000D02*
X196088000Y-112776000D01*
X201168000Y-115316000D02*
X201168000Y-69596000D01*
X195808000Y-114046000D02*
X195808000Y-115596000D01*
X195808000Y-115596000D02*
X197358000Y-115596000D01*
X201168000Y-69596000D02*
X196088000Y-69596000D01*
X198628000Y-112776000D02*
X196088000Y-112776000D01*
X201168000Y-115316000D02*
X198628000Y-115316000D01*
%TO.C,P2*%
X150368000Y-117856000D02*
X132588000Y-117856000D01*
X150368000Y-120396000D02*
X150368000Y-117856000D01*
X132588000Y-120396000D02*
X150368000Y-120396000D01*
X132588000Y-120396000D02*
X132588000Y-117856000D01*
X131318000Y-117576000D02*
X129768000Y-117576000D01*
X129768000Y-120676000D02*
X131318000Y-120676000D01*
X129768000Y-117576000D02*
X129768000Y-120676000D01*
%TO.C,P3*%
X152628000Y-117576000D02*
X152628000Y-120676000D01*
X154178000Y-117576000D02*
X152628000Y-117576000D01*
X155448000Y-120396000D02*
X173228000Y-120396000D01*
X173228000Y-117856000D02*
X155448000Y-117856000D01*
X173228000Y-120396000D02*
X173228000Y-117856000D01*
X152628000Y-120676000D02*
X154178000Y-120676000D01*
X155448000Y-120396000D02*
X155448000Y-117856000D01*
%TO.C,P4*%
X175488000Y-120676000D02*
X177038000Y-120676000D01*
X178308000Y-120396000D02*
X196088000Y-120396000D01*
X175488000Y-117576000D02*
X175488000Y-120676000D01*
X178308000Y-120396000D02*
X178308000Y-117856000D01*
X196088000Y-117856000D02*
X178308000Y-117856000D01*
X196088000Y-120396000D02*
X196088000Y-117856000D01*
X177038000Y-117576000D02*
X175488000Y-117576000D01*
%TO.C,P5*%
X123444000Y-72136000D02*
X146304000Y-72136000D01*
X120624000Y-72416000D02*
X122174000Y-72416000D01*
X123444000Y-72136000D02*
X123444000Y-69596000D01*
X122174000Y-69316000D02*
X120624000Y-69316000D01*
X146304000Y-69596000D02*
X123444000Y-69596000D01*
X146304000Y-72136000D02*
X146304000Y-69596000D01*
X120624000Y-69316000D02*
X120624000Y-72416000D01*
%TO.C,P6*%
X147548000Y-69316000D02*
X147548000Y-72416000D01*
X168148000Y-69596000D02*
X150368000Y-69596000D01*
X168148000Y-72136000D02*
X168148000Y-69596000D01*
X150368000Y-72136000D02*
X168148000Y-72136000D01*
X149098000Y-69316000D02*
X147548000Y-69316000D01*
X147548000Y-72416000D02*
X149098000Y-72416000D01*
X150368000Y-72136000D02*
X150368000Y-69596000D01*
%TO.C,P7*%
X191008000Y-72136000D02*
X191008000Y-69596000D01*
X173228000Y-72136000D02*
X191008000Y-72136000D01*
X191008000Y-69596000D02*
X173228000Y-69596000D01*
X173228000Y-72136000D02*
X173228000Y-69596000D01*
X170408000Y-69316000D02*
X170408000Y-72416000D01*
X170408000Y-72416000D02*
X171958000Y-72416000D01*
X171958000Y-69316000D02*
X170408000Y-69316000D01*
D11*
%TO.C,J2*%
X191060000Y-94214200D02*
X186760000Y-94214200D01*
X191060000Y-80214200D02*
X191060000Y-94214200D01*
X134060000Y-80214200D02*
X191060000Y-80214200D01*
X134060000Y-94214200D02*
X134060000Y-80214200D01*
X138360000Y-94214200D02*
X134060000Y-94214200D01*
X135876949Y-80259444D02*
G75*
G03*
X189360000Y-80214200I26683051J69145244D01*
G01*
%TO.C,G\u002A\u002A\u002A*%
G36*
X114718107Y-99380214D02*
G01*
X114804852Y-99914518D01*
X114759861Y-100229831D01*
X114435514Y-101128141D01*
X114025601Y-101660816D01*
X113285132Y-102014945D01*
X112496580Y-102087203D01*
X111930579Y-101883164D01*
X111810085Y-101615184D01*
X112062470Y-100988223D01*
X112346704Y-100677014D01*
X112757889Y-100446588D01*
X112880381Y-100817393D01*
X112883324Y-100990956D01*
X113015870Y-101595809D01*
X113216963Y-101750253D01*
X113601422Y-101447148D01*
X113821778Y-100748127D01*
X113790736Y-99968635D01*
X113747527Y-99833046D01*
X113757665Y-99358878D01*
X114226426Y-99246028D01*
X114718107Y-99380214D01*
G37*
G36*
X113070830Y-87312012D02*
G01*
X113404978Y-88042182D01*
X113554445Y-89336271D01*
X113533046Y-91257395D01*
X113518247Y-91560080D01*
X113455503Y-93235442D01*
X113482985Y-94294981D01*
X113608090Y-94833557D01*
X113782823Y-94953070D01*
X114441516Y-95019052D01*
X115253394Y-95156534D01*
X115976773Y-95204120D01*
X116472869Y-94879879D01*
X116946577Y-94116215D01*
X117912808Y-92861787D01*
X119359726Y-91645545D01*
X121063677Y-90631515D01*
X122451104Y-90079259D01*
X123800129Y-89706201D01*
X124590114Y-89604737D01*
X124932780Y-89797453D01*
X124939850Y-90306932D01*
X124882141Y-90570676D01*
X124147867Y-92459742D01*
X122969203Y-94268098D01*
X121503070Y-95811801D01*
X119906391Y-96906909D01*
X119236764Y-97188116D01*
X118297746Y-97545727D01*
X117874160Y-97923013D01*
X117792276Y-98531980D01*
X117818902Y-98918370D01*
X118116586Y-100540564D01*
X118657485Y-101695929D01*
X119386397Y-102270884D01*
X119457484Y-102289860D01*
X120275915Y-102384443D01*
X121411077Y-102406366D01*
X122659111Y-102366871D01*
X123816160Y-102277199D01*
X124678365Y-102148591D01*
X125041868Y-101992288D01*
X125043375Y-101981841D01*
X125188534Y-101541159D01*
X125574065Y-100620075D01*
X126129821Y-99382787D01*
X126418863Y-98762123D01*
X127324933Y-97077007D01*
X128342046Y-95571958D01*
X129381295Y-94341177D01*
X130353770Y-93478866D01*
X131170563Y-93079227D01*
X131685815Y-93181601D01*
X132048235Y-93876933D01*
X132186558Y-95021687D01*
X132101725Y-96386104D01*
X131794679Y-97740424D01*
X131665674Y-98094842D01*
X131141144Y-98975473D01*
X130241736Y-100093656D01*
X129145157Y-101232432D01*
X128937459Y-101425674D01*
X127870768Y-102411703D01*
X127256154Y-103056895D01*
X127016392Y-103501838D01*
X127074255Y-103887119D01*
X127339882Y-104334040D01*
X127741202Y-105140969D01*
X128213151Y-106369999D01*
X128636828Y-107699464D01*
X129096991Y-109092761D01*
X129614813Y-110337140D01*
X130054872Y-111126612D01*
X130510062Y-112104329D01*
X130749620Y-113351281D01*
X130762981Y-114611167D01*
X130539582Y-115627689D01*
X130257398Y-116040717D01*
X129560160Y-116305573D01*
X128587140Y-116355479D01*
X128558102Y-116352831D01*
X127841615Y-116248631D01*
X127648419Y-116094123D01*
X128867093Y-115993784D01*
X130234028Y-115881239D01*
X130340727Y-114044395D01*
X130322926Y-112703174D01*
X130019398Y-111675037D01*
X129572466Y-110918224D01*
X128964782Y-109776212D01*
X128433778Y-108369885D01*
X128263408Y-107746618D01*
X127869665Y-106392309D01*
X127368274Y-105112693D01*
X127132808Y-104646142D01*
X126436306Y-103427947D01*
X128745896Y-101229241D01*
X130260910Y-99621272D01*
X131221129Y-98149426D01*
X131715669Y-96637885D01*
X131836414Y-95131943D01*
X131735991Y-93975214D01*
X131405575Y-93473233D01*
X130786930Y-93604290D01*
X129821818Y-94346672D01*
X129794962Y-94370876D01*
X128585319Y-95736980D01*
X127396781Y-97550654D01*
X126380139Y-99555825D01*
X125765517Y-101213633D01*
X125342059Y-102644619D01*
X122779593Y-102723211D01*
X121380284Y-102739068D01*
X120173284Y-102705138D01*
X119419515Y-102628767D01*
X119418704Y-102628592D01*
X118579714Y-102096187D01*
X117917406Y-100962512D01*
X117488725Y-99331701D01*
X117443779Y-99017217D01*
X117373782Y-98042264D01*
X117552609Y-97509737D01*
X118073327Y-97163732D01*
X118126821Y-97139048D01*
X118944058Y-96837025D01*
X119436957Y-96741802D01*
X120236875Y-96444959D01*
X121225240Y-95653457D01*
X122277090Y-94515836D01*
X123267463Y-93180636D01*
X124071396Y-91796396D01*
X124508548Y-90713302D01*
X124621825Y-90161010D01*
X124384256Y-89996069D01*
X123629764Y-90116305D01*
X123561894Y-90130904D01*
X121018557Y-91028098D01*
X118834524Y-92543854D01*
X117125618Y-94508364D01*
X116451207Y-95397402D01*
X115969039Y-95769980D01*
X115519921Y-95732872D01*
X115392178Y-95671040D01*
X114532288Y-95401909D01*
X113660010Y-95310816D01*
X112983172Y-95270577D01*
X112744001Y-95013860D01*
X112828825Y-94336670D01*
X112912464Y-93969267D01*
X113091853Y-92846801D01*
X113194890Y-91486271D01*
X113222055Y-90085250D01*
X113173828Y-88841308D01*
X113050690Y-87952019D01*
X112897041Y-87627745D01*
X112498187Y-87748053D01*
X112001540Y-88420793D01*
X111463576Y-89499731D01*
X110940772Y-90838636D01*
X110489604Y-92291274D01*
X110166546Y-93711412D01*
X110028075Y-94952818D01*
X110026559Y-95060272D01*
X109901194Y-96358035D01*
X109593170Y-97553385D01*
X109454361Y-97873774D01*
X109111378Y-98848774D01*
X109044267Y-100059886D01*
X109126586Y-101031315D01*
X109402777Y-102455506D01*
X109923316Y-103323224D01*
X110836620Y-103787028D01*
X111988958Y-103973551D01*
X112585205Y-104072096D01*
X112932579Y-104340656D01*
X113131880Y-104953793D01*
X113283907Y-106086069D01*
X113301766Y-106247030D01*
X113549669Y-107880302D01*
X113914167Y-109620479D01*
X114127576Y-110435055D01*
X114457229Y-111852072D01*
X114424291Y-112861568D01*
X113978144Y-113699920D01*
X113274206Y-114420265D01*
X112721165Y-115078482D01*
X112525578Y-115578939D01*
X112819246Y-115948243D01*
X113551944Y-116062140D01*
X114501212Y-115937911D01*
X115444587Y-115592839D01*
X115875924Y-115318654D01*
X116530940Y-114594609D01*
X116817992Y-113863831D01*
X116818535Y-113838238D01*
X117051038Y-113183481D01*
X117651464Y-112263702D01*
X118249521Y-111546845D01*
X119023932Y-110619478D01*
X119543568Y-109830169D01*
X119680507Y-109449796D01*
X119822633Y-108954238D01*
X120205614Y-109078071D01*
X120764354Y-109793904D01*
X120855487Y-109944183D01*
X121388976Y-111199456D01*
X121295208Y-112217172D01*
X120552558Y-113140744D01*
X120348296Y-113308060D01*
X119619664Y-114062611D01*
X119534050Y-114631742D01*
X120082257Y-114946447D01*
X120572035Y-114986873D01*
X121309426Y-114700168D01*
X122192663Y-113972819D01*
X123047281Y-113003969D01*
X123698816Y-111992765D01*
X123972805Y-111138350D01*
X123973465Y-111104253D01*
X124028662Y-110576592D01*
X124267856Y-110409632D01*
X124801451Y-110628768D01*
X125739852Y-111259394D01*
X126245544Y-111626870D01*
X127202447Y-112353285D01*
X127698464Y-112883728D01*
X127850841Y-113443762D01*
X127776824Y-114258953D01*
X127740581Y-114503081D01*
X127517670Y-115989557D01*
X127508995Y-115982619D01*
X127436949Y-115351250D01*
X127476516Y-114567212D01*
X127502531Y-113583722D01*
X127333210Y-112948491D01*
X126830355Y-112407947D01*
X125956094Y-111777491D01*
X125010818Y-111168925D01*
X124508152Y-110975502D01*
X124335906Y-111160558D01*
X124331211Y-111246481D01*
X124123308Y-111829068D01*
X123584051Y-112741555D01*
X122989662Y-113573781D01*
X121840132Y-114780395D01*
X120774292Y-115336698D01*
X119834868Y-115228586D01*
X119307271Y-114789336D01*
X119095329Y-114360391D01*
X119297828Y-113889541D01*
X119978960Y-113199643D01*
X120783517Y-112371194D01*
X121068334Y-111715114D01*
X120901768Y-110996253D01*
X120723693Y-110637760D01*
X120480893Y-110280795D01*
X120190752Y-110245058D01*
X119714532Y-110595716D01*
X118913496Y-111397930D01*
X118756088Y-111561927D01*
X117929227Y-112517722D01*
X117357367Y-113356204D01*
X117176282Y-113834134D01*
X116945270Y-114497455D01*
X116378142Y-115313688D01*
X116267438Y-115437711D01*
X115302370Y-116185415D01*
X114120005Y-116416710D01*
X114001710Y-116417859D01*
X113061186Y-116360115D01*
X112461806Y-116217438D01*
X112406329Y-116179361D01*
X112181418Y-115569951D01*
X112530325Y-114707911D01*
X113236028Y-113795160D01*
X114304225Y-112578551D01*
X113746400Y-110700148D01*
X113383680Y-109229386D01*
X113069939Y-107535691D01*
X112946512Y-106627549D01*
X112793267Y-105421016D01*
X112605684Y-104753452D01*
X112284349Y-104451300D01*
X111729847Y-104340999D01*
X111631211Y-104331297D01*
X110313579Y-104100193D01*
X109488758Y-103612823D01*
X109017825Y-102718721D01*
X108761855Y-101267420D01*
X108756475Y-101217720D01*
X108665344Y-99713752D01*
X108795888Y-98638011D01*
X109090884Y-97884856D01*
X109443030Y-96800848D01*
X109641495Y-95361760D01*
X109663606Y-94718415D01*
X109746590Y-93403403D01*
X110043338Y-92129364D01*
X110625543Y-90630717D01*
X110972133Y-89871072D01*
X111589999Y-88613753D01*
X112116117Y-87650997D01*
X112466521Y-87132304D01*
X112538188Y-87082647D01*
X113070830Y-87312012D01*
G37*
%TD*%
D12*
%TO.C,P1*%
X197358000Y-114046000D03*
D13*
X199898000Y-114046000D03*
X197358000Y-111506000D03*
X199898000Y-111506000D03*
X197358000Y-108966000D03*
X199898000Y-108966000D03*
X197358000Y-106426000D03*
X199898000Y-106426000D03*
X197358000Y-103886000D03*
X199898000Y-103886000D03*
X197358000Y-101346000D03*
X199898000Y-101346000D03*
X197358000Y-98806000D03*
X199898000Y-98806000D03*
X197358000Y-96266000D03*
X199898000Y-96266000D03*
X197358000Y-93726000D03*
X199898000Y-93726000D03*
X197358000Y-91186000D03*
X199898000Y-91186000D03*
X197358000Y-88646000D03*
X199898000Y-88646000D03*
X197358000Y-86106000D03*
X199898000Y-86106000D03*
X197358000Y-83566000D03*
X199898000Y-83566000D03*
X197358000Y-81026000D03*
X199898000Y-81026000D03*
X197358000Y-78486000D03*
X199898000Y-78486000D03*
X197358000Y-75946000D03*
X199898000Y-75946000D03*
X197358000Y-73406000D03*
X199898000Y-73406000D03*
X197358000Y-70866000D03*
X199898000Y-70866000D03*
%TD*%
D14*
%TO.C,P2*%
X131318000Y-119126000D03*
X133858000Y-119126000D03*
X136398000Y-119126000D03*
X138938000Y-119126000D03*
X141478000Y-119126000D03*
X144018000Y-119126000D03*
X146558000Y-119126000D03*
X149098000Y-119126000D03*
%TD*%
%TO.C,P3*%
X154178000Y-119126000D03*
X156718000Y-119126000D03*
X159258000Y-119126000D03*
X161798000Y-119126000D03*
X164338000Y-119126000D03*
X166878000Y-119126000D03*
X169418000Y-119126000D03*
X171958000Y-119126000D03*
%TD*%
%TO.C,P4*%
X177038000Y-119126000D03*
X179578000Y-119126000D03*
X182118000Y-119126000D03*
X184658000Y-119126000D03*
X187198000Y-119126000D03*
X189738000Y-119126000D03*
X192278000Y-119126000D03*
X194818000Y-119126000D03*
%TD*%
%TO.C,P5*%
X122174000Y-70866000D03*
X124714000Y-70866000D03*
X127254000Y-70866000D03*
X129794000Y-70866000D03*
X132334000Y-70866000D03*
X134874000Y-70866000D03*
X137414000Y-70866000D03*
X139954000Y-70866000D03*
X142494000Y-70866000D03*
X145034000Y-70866000D03*
%TD*%
%TO.C,P6*%
X149098000Y-70866000D03*
X151638000Y-70866000D03*
X154178000Y-70866000D03*
X156718000Y-70866000D03*
X159258000Y-70866000D03*
X161798000Y-70866000D03*
X164338000Y-70866000D03*
X166878000Y-70866000D03*
%TD*%
%TO.C,P7*%
X171958000Y-70866000D03*
X174498000Y-70866000D03*
X177038000Y-70866000D03*
X179578000Y-70866000D03*
X182118000Y-70866000D03*
X184658000Y-70866000D03*
X187198000Y-70866000D03*
X189738000Y-70866000D03*
%TD*%
D15*
%TO.C,J2*%
X175310000Y-87714200D03*
X149810000Y-87714200D03*
D16*
X182060000Y-90714200D03*
X142060000Y-90714200D03*
%TD*%
M02*
